<svg xmlns="http://www.w3.org/2000/svg" width="22" height="22" viewBox="0 0 22 22">
    <path fill="#60320b" fill-rule="nonzero" d="M12.5 3H14a3 3 0 0 0-6 0h1.5a1.5 1.5 0 0 1 3 0zM5 6.5v11.49C5 19.1 5.897 20 6.996 20h8.008A2.003 2.003 0 0 0 17 17.99V6.5h2v11.49A4.003 4.003 0 0 1 15.004 22H6.996A4.006 4.006 0 0 1 3 17.99V6.5h2zm3 3.497C8 9.447 8.444 9 9 9c.552 0 1 .453 1 .997v6.006c0 .55-.444.997-1 .997-.552 0-1-.453-1-.997V9.997zm4 0c0-.55.444-.997 1-.997.552 0 1 .453 1 .997v6.006c0 .55-.444.997-1 .997-.552 0-1-.453-1-.997V9.997zM1 4c0-.552.455-1 .992-1h18.016c.548 0 .992.444.992 1 0 .552-.455 1-.992 1H1.992A.993.993 0 0 1 1 4z"/>
</svg>
